<svg width="32.000000" height="32.000000" viewBox="0 0 32 32" fill="none" xmlns="http://www.w3.org/2000/svg" xmlns:xlink="http://www.w3.org/1999/xlink">
	<desc>
			Created with Pixso.
	</desc>
	<defs/>
	<path id="bg" d="M27 0L5 0C2.23 0 0 2.23 0 5L0 27C0 29.76 2.23 32 5 32L27 32C29.76 32 32 29.76 32 27L32 5C32 2.23 29.76 0 27 0Z" fill="#89E13D" fill-opacity="1.000000" fill-rule="evenodd"/>
	<path id="instagram" d="M19.68 7L12.31 7C11.33 7 10.68 7.21 10.14 7.43C9.6 7.65 9.06 7.97 8.51 8.51C7.97 9.06 7.75 9.49 7.43 10.14C7.21 10.68 7.1 11.33 7 12.31L7 19.68C7 20.66 7.21 21.31 7.43 21.85C7.65 22.39 7.97 22.93 8.51 23.48C9.06 24.02 9.49 24.24 10.14 24.56C10.68 24.78 11.33 24.89 12.31 25L19.68 25C20.66 25 21.31 24.78 21.85 24.56C22.39 24.34 22.93 24.02 23.48 23.48C24.02 22.93 24.24 22.5 24.56 21.85C24.78 21.31 24.89 20.66 25 19.68L25 12.31C25 11.33 24.78 10.68 24.56 10.14C24.34 9.6 24.02 9.06 23.48 8.51C22.93 7.97 22.5 7.75 21.85 7.43C21.31 7.21 20.66 7.1 19.68 7ZM12.31 8.62L19.68 8.62C20.55 8.62 20.98 8.84 21.31 8.95C21.74 9.16 22.07 9.27 22.39 9.6C22.72 9.92 22.93 10.25 23.04 10.68C23.15 11.01 23.26 11.44 23.37 12.31L23.37 19.68C23.37 20.55 23.15 20.98 23.04 21.31C22.83 21.74 22.72 22.07 22.39 22.39C22.07 22.72 21.74 22.93 21.31 23.04C20.98 23.15 20.55 23.26 19.68 23.37L12.31 23.37C11.44 23.37 11.01 23.15 10.68 23.04C10.25 22.83 9.92 22.72 9.6 22.39C9.27 22.07 9.06 21.74 8.95 21.31C8.84 20.98 8.73 20.55 8.62 19.68L8.62 12.31C8.62 11.44 8.84 11.01 8.95 10.68C9.16 10.25 9.27 9.92 9.6 9.6C9.92 9.27 10.25 9.06 10.68 8.95C11.01 8.84 11.44 8.73 12.31 8.62ZM21.85 11.22C21.85 11.82 21.36 12.31 20.77 12.31C20.17 12.31 19.68 11.82 19.68 11.22C19.68 10.62 20.17 10.14 20.77 10.14C21.36 10.14 21.85 10.62 21.85 11.22ZM16 11.33C13.39 11.33 11.33 13.39 11.33 16C11.33 18.6 13.39 20.66 16 20.66C18.6 20.66 20.66 18.6 20.66 16C20.66 13.39 18.6 11.33 16 11.33ZM16 19.03C14.37 19.03 12.96 17.73 12.96 16C12.96 14.37 14.26 12.96 16 12.96C17.62 12.96 19.03 14.26 19.03 16C19.03 17.62 17.62 19.03 16 19.03Z" fill="#1F1F1F" fill-opacity="1.000000" fill-rule="evenodd"/>
</svg>
