<svg width="32.000000" height="32.000000" viewBox="0 0 32 32" fill="none" xmlns="http://www.w3.org/2000/svg" xmlns:xlink="http://www.w3.org/1999/xlink">
	<desc>
			Created with Pixso.
	</desc>
	<defs/>
	<rect id="Rectangle 3468305" rx="5.000000" width="32.000000" height="32.000000" fill="#89E13D" fill-opacity="1.000000"/>
	<path id="Subtract" d="M26 10.9L26 11.06L16.74 16.85C16.28 17.14 15.71 17.14 15.25 16.85L6 11.06L6 10.9C6 9.3 7.27 8 8.85 8L23.14 8C24.72 8 26 9.3 26 10.9ZM6 21.09L6 12.77L14.5 18.09C15.41 18.67 16.58 18.67 17.49 18.09L26 12.77L26 21.09C26 22.69 24.72 24 23.14 24L8.85 24C7.27 24 6 22.69 6 21.09Z" fill="#1F1F1F" fill-opacity="1.000000" fill-rule="evenodd"/>
</svg>
