<svg width="32.000000" height="32.000000" viewBox="0 0 32 32" fill="none" xmlns="http://www.w3.org/2000/svg" xmlns:xlink="http://www.w3.org/1999/xlink">
	<desc>
			Created with Pixso.
	</desc>
	<defs/>
	<path id="bg" d="M27 0L5 0C2.23 0 0 2.23 0 5L0 27C0 29.76 2.23 32 5 32L27 32C29.76 32 32 29.76 32 27L32 5C32 2.23 29.76 0 27 0Z" fill="#89E13D" fill-opacity="1.000000" fill-rule="evenodd"/>
	<path id="telegram" d="M5.37 15.31C10.74 12.91 14.32 11.33 16.11 10.57C21.22 8.39 22.29 8.01 22.98 8C23.13 7.99 23.47 8.03 23.69 8.21C23.88 8.37 23.93 8.58 23.96 8.73C23.98 8.87 24.01 9.21 23.99 9.47C23.71 12.46 22.51 19.7 21.9 23.05C21.64 24.47 21.13 24.94 20.64 24.99C19.57 25.09 18.76 24.26 17.72 23.57C16.1 22.48 15.19 21.8 13.61 20.73C11.8 19.5 12.97 18.83 14.01 17.73C14.28 17.44 18.99 13.04 19.08 12.64C19.1 12.59 19.11 12.41 19 12.31C18.89 12.21 18.73 12.24 18.62 12.27C18.46 12.31 15.87 14.06 10.85 17.54C10.11 18.05 9.45 18.31 8.85 18.29C8.19 18.28 6.93 17.91 5.99 17.6C4.84 17.21 3.92 17.01 4 16.36C4.04 16.02 4.5 15.67 5.37 15.31Z" fill="#1F1F1F" fill-opacity="1.000000" fill-rule="nonzero"/>
</svg>
